<mxfile host="Electron" modified="2023-12-04T09:53:57.641Z" agent="Mozilla/5.0 (Macintosh; Intel Mac OS X 10_15_7) AppleWebKit/537.36 (KHTML, like Gecko) draw.io/22.1.2 Chrome/114.0.5735.289 Electron/25.9.4 Safari/537.36" etag="mrca60vis0lvzzkobAQq" version="22.1.2" type="device">
  <diagram id="kgpKYQtTHZ0yAKxKKP6v" name="Page-1">
    <mxGraphModel dx="2074" dy="2367" grid="1" gridSize="10" guides="1" tooltips="1" connect="1" arrows="1" fold="1" page="1" pageScale="1" pageWidth="850" pageHeight="1100" math="0" shadow="0">
      <root>
        <mxCell id="0" />
        <mxCell id="1" parent="0" />
        <mxCell id="IVVI-XEZEUWKGoIuO-L4-1" value="&lt;font style=&quot;font-size: 18px;&quot;&gt;数据要素操作系统&lt;/font&gt;" style="rounded=1;whiteSpace=wrap;html=1;" vertex="1" parent="1">
          <mxGeometry x="1090" y="-430" width="260" height="60" as="geometry" />
        </mxCell>
        <mxCell id="IVVI-XEZEUWKGoIuO-L4-2" value="Es/Ds/Tm" style="rounded=1;whiteSpace=wrap;html=1;" vertex="1" parent="1">
          <mxGeometry x="1090" y="-490" width="260" height="60" as="geometry" />
        </mxCell>
        <mxCell id="IVVI-XEZEUWKGoIuO-L4-3" value="&lt;font style=&quot;font-size: 18px;&quot;&gt;参与方A&lt;/font&gt;" style="rounded=1;whiteSpace=wrap;html=1;" vertex="1" parent="1">
          <mxGeometry x="940" y="-250" width="150" height="60" as="geometry" />
        </mxCell>
        <mxCell id="IVVI-XEZEUWKGoIuO-L4-4" value="&lt;font style=&quot;font-size: 18px;&quot;&gt;数据流通平台&lt;/font&gt;" style="rounded=1;whiteSpace=wrap;html=1;" vertex="1" parent="1">
          <mxGeometry x="1090" y="-370" width="260" height="60" as="geometry" />
        </mxCell>
        <mxCell id="IVVI-XEZEUWKGoIuO-L4-5" value="Es/Ds/Tm" style="rounded=1;whiteSpace=wrap;html=1;" vertex="1" parent="1">
          <mxGeometry x="900" y="-190" width="190" height="50" as="geometry" />
        </mxCell>
        <mxCell id="IVVI-XEZEUWKGoIuO-L4-6" value="&lt;font style=&quot;font-size: 18px;&quot;&gt;参与方B&lt;/font&gt;" style="rounded=1;whiteSpace=wrap;html=1;" vertex="1" parent="1">
          <mxGeometry x="1350" y="-250" width="150" height="60" as="geometry" />
        </mxCell>
        <mxCell id="IVVI-XEZEUWKGoIuO-L4-7" value="Es/Ds/Tm" style="rounded=1;whiteSpace=wrap;html=1;" vertex="1" parent="1">
          <mxGeometry x="1350" y="-190" width="190" height="50" as="geometry" />
        </mxCell>
        <mxCell id="IVVI-XEZEUWKGoIuO-L4-8" value="" style="endArrow=classic;startArrow=classic;html=1;rounded=0;exitX=0.6;exitY=-0.033;exitDx=0;exitDy=0;exitPerimeter=0;" edge="1" parent="1" source="IVVI-XEZEUWKGoIuO-L4-3">
          <mxGeometry width="50" height="50" relative="1" as="geometry">
            <mxPoint x="1040" y="-260" as="sourcePoint" />
            <mxPoint x="1090" y="-310" as="targetPoint" />
          </mxGeometry>
        </mxCell>
        <mxCell id="IVVI-XEZEUWKGoIuO-L4-9" value="" style="endArrow=classic;startArrow=classic;html=1;rounded=0;exitX=0.25;exitY=0;exitDx=0;exitDy=0;entryX=1;entryY=1;entryDx=0;entryDy=0;" edge="1" parent="1" source="IVVI-XEZEUWKGoIuO-L4-6" target="IVVI-XEZEUWKGoIuO-L4-4">
          <mxGeometry width="50" height="50" relative="1" as="geometry">
            <mxPoint x="1040" y="-242" as="sourcePoint" />
            <mxPoint x="1100" y="-300" as="targetPoint" />
          </mxGeometry>
        </mxCell>
        <mxCell id="IVVI-XEZEUWKGoIuO-L4-10" value="&lt;font style=&quot;font-size: 18px;&quot;&gt;数据要素操作系统&lt;/font&gt;" style="rounded=1;whiteSpace=wrap;html=1;" vertex="1" parent="1">
          <mxGeometry x="270" y="-430" width="260" height="60" as="geometry" />
        </mxCell>
        <mxCell id="IVVI-XEZEUWKGoIuO-L4-11" value="Es/Ds/Tm" style="rounded=1;whiteSpace=wrap;html=1;" vertex="1" parent="1">
          <mxGeometry x="270" y="-490" width="260" height="60" as="geometry" />
        </mxCell>
        <mxCell id="IVVI-XEZEUWKGoIuO-L4-12" value="&lt;font style=&quot;font-size: 18px;&quot;&gt;参与方A&lt;/font&gt;" style="rounded=1;whiteSpace=wrap;html=1;" vertex="1" parent="1">
          <mxGeometry x="120" y="-250" width="150" height="60" as="geometry" />
        </mxCell>
        <mxCell id="IVVI-XEZEUWKGoIuO-L4-13" value="&lt;font style=&quot;font-size: 18px;&quot;&gt;数据流通平台&lt;/font&gt;" style="rounded=1;whiteSpace=wrap;html=1;" vertex="1" parent="1">
          <mxGeometry x="270" y="-370" width="260" height="60" as="geometry" />
        </mxCell>
        <mxCell id="IVVI-XEZEUWKGoIuO-L4-14" value="Ds" style="rounded=1;whiteSpace=wrap;html=1;" vertex="1" parent="1">
          <mxGeometry x="80" y="-190" width="190" height="50" as="geometry" />
        </mxCell>
        <mxCell id="IVVI-XEZEUWKGoIuO-L4-15" value="&lt;font style=&quot;font-size: 18px;&quot;&gt;参与方B&lt;/font&gt;" style="rounded=1;whiteSpace=wrap;html=1;" vertex="1" parent="1">
          <mxGeometry x="530" y="-250" width="150" height="60" as="geometry" />
        </mxCell>
        <mxCell id="IVVI-XEZEUWKGoIuO-L4-16" value="Ds" style="rounded=1;whiteSpace=wrap;html=1;" vertex="1" parent="1">
          <mxGeometry x="530" y="-190" width="190" height="50" as="geometry" />
        </mxCell>
        <mxCell id="IVVI-XEZEUWKGoIuO-L4-17" value="" style="endArrow=classic;startArrow=classic;html=1;rounded=0;exitX=0.6;exitY=-0.033;exitDx=0;exitDy=0;exitPerimeter=0;" edge="1" parent="1" source="IVVI-XEZEUWKGoIuO-L4-12">
          <mxGeometry width="50" height="50" relative="1" as="geometry">
            <mxPoint x="220" y="-260" as="sourcePoint" />
            <mxPoint x="270" y="-310" as="targetPoint" />
          </mxGeometry>
        </mxCell>
        <mxCell id="IVVI-XEZEUWKGoIuO-L4-18" value="" style="endArrow=classic;startArrow=classic;html=1;rounded=0;exitX=0.25;exitY=0;exitDx=0;exitDy=0;entryX=1;entryY=1;entryDx=0;entryDy=0;" edge="1" parent="1" source="IVVI-XEZEUWKGoIuO-L4-15" target="IVVI-XEZEUWKGoIuO-L4-13">
          <mxGeometry width="50" height="50" relative="1" as="geometry">
            <mxPoint x="220" y="-242" as="sourcePoint" />
            <mxPoint x="280" y="-300" as="targetPoint" />
          </mxGeometry>
        </mxCell>
        <mxCell id="IVVI-XEZEUWKGoIuO-L4-19" value="&lt;font style=&quot;font-size: 18px;&quot;&gt;旧版系统架构模式&lt;/font&gt;" style="text;html=1;align=center;verticalAlign=middle;resizable=0;points=[];autosize=1;strokeColor=none;fillColor=none;" vertex="1" parent="1">
          <mxGeometry x="315" y="-530" width="170" height="40" as="geometry" />
        </mxCell>
        <mxCell id="IVVI-XEZEUWKGoIuO-L4-20" value="&lt;font style=&quot;font-size: 18px;&quot;&gt;新版系统架构模式&lt;/font&gt;" style="text;html=1;align=center;verticalAlign=middle;resizable=0;points=[];autosize=1;strokeColor=none;fillColor=none;" vertex="1" parent="1">
          <mxGeometry x="1135" y="-540" width="170" height="40" as="geometry" />
        </mxCell>
        <mxCell id="IVVI-XEZEUWKGoIuO-L4-21" value="" style="endArrow=classic;startArrow=classic;html=1;rounded=0;exitX=1;exitY=0.5;exitDx=0;exitDy=0;entryX=0;entryY=0.5;entryDx=0;entryDy=0;" edge="1" parent="1" source="IVVI-XEZEUWKGoIuO-L4-5" target="IVVI-XEZEUWKGoIuO-L4-7">
          <mxGeometry width="50" height="50" relative="1" as="geometry">
            <mxPoint x="578" y="-240" as="sourcePoint" />
            <mxPoint x="540" y="-300" as="targetPoint" />
          </mxGeometry>
        </mxCell>
        <mxCell id="IVVI-XEZEUWKGoIuO-L4-22" value="&lt;font style=&quot;font-size: 18px;&quot;&gt;数据要素操作系统&lt;/font&gt;" style="rounded=1;whiteSpace=wrap;html=1;" vertex="1" parent="1">
          <mxGeometry x="260" y="120" width="260" height="60" as="geometry" />
        </mxCell>
        <mxCell id="IVVI-XEZEUWKGoIuO-L4-23" value="Es/Ds/Tm" style="rounded=1;whiteSpace=wrap;html=1;" vertex="1" parent="1">
          <mxGeometry x="260" y="60" width="260" height="60" as="geometry" />
        </mxCell>
        <mxCell id="IVVI-XEZEUWKGoIuO-L4-24" value="&lt;font style=&quot;font-size: 18px;&quot;&gt;参与方A&lt;/font&gt;" style="rounded=1;whiteSpace=wrap;html=1;" vertex="1" parent="1">
          <mxGeometry x="110" y="300" width="150" height="60" as="geometry" />
        </mxCell>
        <mxCell id="IVVI-XEZEUWKGoIuO-L4-25" value="&lt;font style=&quot;font-size: 18px;&quot;&gt;数据流通平台&lt;/font&gt;" style="rounded=1;whiteSpace=wrap;html=1;" vertex="1" parent="1">
          <mxGeometry x="260" y="180" width="260" height="60" as="geometry" />
        </mxCell>
        <mxCell id="IVVI-XEZEUWKGoIuO-L4-26" value="Ds" style="rounded=1;whiteSpace=wrap;html=1;" vertex="1" parent="1">
          <mxGeometry x="70" y="360" width="190" height="50" as="geometry" />
        </mxCell>
        <mxCell id="IVVI-XEZEUWKGoIuO-L4-27" value="&lt;font style=&quot;font-size: 18px;&quot;&gt;参与方B&lt;/font&gt;" style="rounded=1;whiteSpace=wrap;html=1;" vertex="1" parent="1">
          <mxGeometry x="520" y="300" width="150" height="60" as="geometry" />
        </mxCell>
        <mxCell id="IVVI-XEZEUWKGoIuO-L4-28" value="Ds" style="rounded=1;whiteSpace=wrap;html=1;" vertex="1" parent="1">
          <mxGeometry x="520" y="360" width="190" height="50" as="geometry" />
        </mxCell>
        <mxCell id="IVVI-XEZEUWKGoIuO-L4-29" value="" style="endArrow=classic;startArrow=classic;html=1;rounded=0;exitX=0.6;exitY=-0.033;exitDx=0;exitDy=0;exitPerimeter=0;" edge="1" parent="1" source="IVVI-XEZEUWKGoIuO-L4-24">
          <mxGeometry width="50" height="50" relative="1" as="geometry">
            <mxPoint x="210" y="290" as="sourcePoint" />
            <mxPoint x="260" y="240" as="targetPoint" />
          </mxGeometry>
        </mxCell>
        <mxCell id="IVVI-XEZEUWKGoIuO-L4-30" value="" style="endArrow=classic;startArrow=classic;html=1;rounded=0;exitX=0.25;exitY=0;exitDx=0;exitDy=0;entryX=1;entryY=1;entryDx=0;entryDy=0;" edge="1" parent="1" source="IVVI-XEZEUWKGoIuO-L4-27" target="IVVI-XEZEUWKGoIuO-L4-25">
          <mxGeometry width="50" height="50" relative="1" as="geometry">
            <mxPoint x="210" y="308" as="sourcePoint" />
            <mxPoint x="270" y="250" as="targetPoint" />
          </mxGeometry>
        </mxCell>
        <mxCell id="IVVI-XEZEUWKGoIuO-L4-31" value="&lt;font style=&quot;font-size: 18px;&quot;&gt;旧版系统架构模式&lt;/font&gt;" style="text;html=1;align=center;verticalAlign=middle;resizable=0;points=[];autosize=1;strokeColor=none;fillColor=none;" vertex="1" parent="1">
          <mxGeometry x="305" y="20" width="170" height="40" as="geometry" />
        </mxCell>
        <mxCell id="IVVI-XEZEUWKGoIuO-L4-32" value="&lt;font style=&quot;font-size: 18px;&quot;&gt;功能一：创建DS节点&lt;/font&gt;" style="text;html=1;align=center;verticalAlign=middle;resizable=0;points=[];autosize=1;strokeColor=none;fillColor=none;" vertex="1" parent="1">
          <mxGeometry x="305" y="-37" width="190" height="40" as="geometry" />
        </mxCell>
        <mxCell id="IVVI-XEZEUWKGoIuO-L4-33" value="" style="curved=1;endArrow=classic;html=1;rounded=0;exitX=1;exitY=0.5;exitDx=0;exitDy=0;entryX=1;entryY=0.5;entryDx=0;entryDy=0;" edge="1" parent="1" source="IVVI-XEZEUWKGoIuO-L4-25" target="IVVI-XEZEUWKGoIuO-L4-23">
          <mxGeometry width="50" height="50" relative="1" as="geometry">
            <mxPoint x="780" y="420" as="sourcePoint" />
            <mxPoint x="830" y="370" as="targetPoint" />
            <Array as="points">
              <mxPoint x="570" y="170" />
            </Array>
          </mxGeometry>
        </mxCell>
        <mxCell id="IVVI-XEZEUWKGoIuO-L4-34" value="Step1 申请创建DsID" style="text;html=1;align=center;verticalAlign=middle;resizable=0;points=[];autosize=1;strokeColor=none;fillColor=none;" vertex="1" parent="1">
          <mxGeometry x="560" y="138" width="130" height="30" as="geometry" />
        </mxCell>
        <mxCell id="IVVI-XEZEUWKGoIuO-L4-35" value="Step2 申请证书" style="text;html=1;align=center;verticalAlign=middle;resizable=0;points=[];autosize=1;strokeColor=none;fillColor=none;" vertex="1" parent="1">
          <mxGeometry x="110" y="135" width="110" height="30" as="geometry" />
        </mxCell>
        <mxCell id="IVVI-XEZEUWKGoIuO-L4-37" value="" style="curved=1;endArrow=classic;html=1;rounded=0;exitX=0;exitY=0.5;exitDx=0;exitDy=0;entryX=0;entryY=0.5;entryDx=0;entryDy=0;" edge="1" parent="1" source="IVVI-XEZEUWKGoIuO-L4-25" target="IVVI-XEZEUWKGoIuO-L4-23">
          <mxGeometry width="50" height="50" relative="1" as="geometry">
            <mxPoint x="150" y="210" as="sourcePoint" />
            <mxPoint x="150" y="90" as="targetPoint" />
            <Array as="points">
              <mxPoint x="200" y="170" />
            </Array>
          </mxGeometry>
        </mxCell>
        <mxCell id="IVVI-XEZEUWKGoIuO-L4-38" value="Step3 配置证书并启动" style="text;html=1;align=center;verticalAlign=middle;resizable=0;points=[];autosize=1;strokeColor=none;fillColor=none;" vertex="1" parent="1">
          <mxGeometry x="270" y="370" width="140" height="30" as="geometry" />
        </mxCell>
        <mxCell id="IVVI-XEZEUWKGoIuO-L4-39" value="Step3 配置证书并启动" style="text;html=1;align=center;verticalAlign=middle;resizable=0;points=[];autosize=1;strokeColor=none;fillColor=none;" vertex="1" parent="1">
          <mxGeometry x="720" y="370" width="140" height="30" as="geometry" />
        </mxCell>
        <mxCell id="IVVI-XEZEUWKGoIuO-L4-40" value="Step4 上传数据、管理数据集" style="text;html=1;align=center;verticalAlign=middle;resizable=0;points=[];autosize=1;strokeColor=none;fillColor=none;" vertex="1" parent="1">
          <mxGeometry x="70" y="420" width="180" height="30" as="geometry" />
        </mxCell>
        <mxCell id="IVVI-XEZEUWKGoIuO-L4-41" value="&lt;font style=&quot;font-size: 18px;&quot;&gt;数据要素操作系统&lt;/font&gt;" style="rounded=1;whiteSpace=wrap;html=1;" vertex="1" parent="1">
          <mxGeometry x="1090" y="120" width="260" height="60" as="geometry" />
        </mxCell>
        <mxCell id="IVVI-XEZEUWKGoIuO-L4-42" value="Es/Ds/Tm" style="rounded=1;whiteSpace=wrap;html=1;" vertex="1" parent="1">
          <mxGeometry x="1090" y="60" width="260" height="60" as="geometry" />
        </mxCell>
        <mxCell id="IVVI-XEZEUWKGoIuO-L4-43" value="&lt;font style=&quot;font-size: 18px;&quot;&gt;参与方A&lt;/font&gt;" style="rounded=1;whiteSpace=wrap;html=1;" vertex="1" parent="1">
          <mxGeometry x="940" y="300" width="150" height="60" as="geometry" />
        </mxCell>
        <mxCell id="IVVI-XEZEUWKGoIuO-L4-44" value="&lt;font style=&quot;font-size: 18px;&quot;&gt;数据流通平台&lt;/font&gt;" style="rounded=1;whiteSpace=wrap;html=1;" vertex="1" parent="1">
          <mxGeometry x="1090" y="180" width="260" height="60" as="geometry" />
        </mxCell>
        <mxCell id="IVVI-XEZEUWKGoIuO-L4-46" value="&lt;font style=&quot;font-size: 18px;&quot;&gt;参与方B&lt;/font&gt;" style="rounded=1;whiteSpace=wrap;html=1;" vertex="1" parent="1">
          <mxGeometry x="1350" y="300" width="150" height="60" as="geometry" />
        </mxCell>
        <mxCell id="IVVI-XEZEUWKGoIuO-L4-48" value="" style="endArrow=classic;startArrow=classic;html=1;rounded=0;exitX=0.6;exitY=-0.033;exitDx=0;exitDy=0;exitPerimeter=0;" edge="1" parent="1" source="IVVI-XEZEUWKGoIuO-L4-43">
          <mxGeometry width="50" height="50" relative="1" as="geometry">
            <mxPoint x="1040" y="290" as="sourcePoint" />
            <mxPoint x="1090" y="240" as="targetPoint" />
          </mxGeometry>
        </mxCell>
        <mxCell id="IVVI-XEZEUWKGoIuO-L4-49" value="" style="endArrow=classic;startArrow=classic;html=1;rounded=0;exitX=0.25;exitY=0;exitDx=0;exitDy=0;entryX=1;entryY=1;entryDx=0;entryDy=0;" edge="1" parent="1" source="IVVI-XEZEUWKGoIuO-L4-46" target="IVVI-XEZEUWKGoIuO-L4-44">
          <mxGeometry width="50" height="50" relative="1" as="geometry">
            <mxPoint x="1040" y="308" as="sourcePoint" />
            <mxPoint x="1100" y="250" as="targetPoint" />
          </mxGeometry>
        </mxCell>
        <mxCell id="IVVI-XEZEUWKGoIuO-L4-50" value="&lt;font style=&quot;font-size: 18px;&quot;&gt;旧版系统架构模式&lt;/font&gt;" style="text;html=1;align=center;verticalAlign=middle;resizable=0;points=[];autosize=1;strokeColor=none;fillColor=none;" vertex="1" parent="1">
          <mxGeometry x="1135" y="20" width="170" height="40" as="geometry" />
        </mxCell>
        <mxCell id="IVVI-XEZEUWKGoIuO-L4-51" value="&lt;font style=&quot;font-size: 18px;&quot;&gt;功能一：创建DS节点&lt;/font&gt;" style="text;html=1;align=center;verticalAlign=middle;resizable=0;points=[];autosize=1;strokeColor=none;fillColor=none;" vertex="1" parent="1">
          <mxGeometry x="1135" y="-37" width="190" height="40" as="geometry" />
        </mxCell>
        <mxCell id="IVVI-XEZEUWKGoIuO-L4-60" value="Es/Ds/Tm" style="rounded=1;whiteSpace=wrap;html=1;" vertex="1" parent="1">
          <mxGeometry x="900" y="360" width="190" height="50" as="geometry" />
        </mxCell>
        <mxCell id="IVVI-XEZEUWKGoIuO-L4-61" value="Es/Ds/Tm" style="rounded=1;whiteSpace=wrap;html=1;" vertex="1" parent="1">
          <mxGeometry x="1350" y="360" width="190" height="50" as="geometry" />
        </mxCell>
        <mxCell id="IVVI-XEZEUWKGoIuO-L4-62" value="" style="endArrow=classic;startArrow=classic;html=1;rounded=0;exitX=1;exitY=0.5;exitDx=0;exitDy=0;entryX=0;entryY=0.5;entryDx=0;entryDy=0;" edge="1" parent="1" source="IVVI-XEZEUWKGoIuO-L4-60" target="IVVI-XEZEUWKGoIuO-L4-61">
          <mxGeometry width="50" height="50" relative="1" as="geometry">
            <mxPoint x="578" y="310" as="sourcePoint" />
            <mxPoint x="540" y="250" as="targetPoint" />
          </mxGeometry>
        </mxCell>
        <mxCell id="IVVI-XEZEUWKGoIuO-L4-63" value="&lt;font style=&quot;font-size: 18px;&quot;&gt;1、Ds节点由tmID代表&lt;/font&gt;" style="text;html=1;align=center;verticalAlign=middle;resizable=0;points=[];autosize=1;strokeColor=none;fillColor=none;" vertex="1" parent="1">
          <mxGeometry x="1390" y="20" width="200" height="40" as="geometry" />
        </mxCell>
        <mxCell id="IVVI-XEZEUWKGoIuO-L4-64" value="&lt;font style=&quot;font-size: 18px;&quot;&gt;问题：&lt;br&gt;&lt;/font&gt;" style="text;html=1;align=center;verticalAlign=middle;resizable=0;points=[];autosize=1;strokeColor=none;fillColor=none;" vertex="1" parent="1">
          <mxGeometry x="1410" y="-20" width="80" height="40" as="geometry" />
        </mxCell>
        <mxCell id="IVVI-XEZEUWKGoIuO-L4-65" value="&lt;font style=&quot;font-size: 18px;&quot;&gt;2、是否有权限校验或者安全校验&lt;/font&gt;" style="text;html=1;align=center;verticalAlign=middle;resizable=0;points=[];autosize=1;strokeColor=none;fillColor=none;" vertex="1" parent="1">
          <mxGeometry x="1390" y="60" width="290" height="40" as="geometry" />
        </mxCell>
        <mxCell id="IVVI-XEZEUWKGoIuO-L4-66" value="&lt;font style=&quot;font-size: 18px;&quot;&gt;3、数据源管理操作&lt;/font&gt;" style="text;html=1;align=center;verticalAlign=middle;resizable=0;points=[];autosize=1;strokeColor=none;fillColor=none;" vertex="1" parent="1">
          <mxGeometry x="1390" y="100" width="180" height="40" as="geometry" />
        </mxCell>
        <mxCell id="IVVI-XEZEUWKGoIuO-L4-67" value="&lt;font style=&quot;font-size: 18px;&quot;&gt;数据要素操作系统&lt;/font&gt;" style="rounded=1;whiteSpace=wrap;html=1;" vertex="1" parent="1">
          <mxGeometry x="230" y="757" width="260" height="60" as="geometry" />
        </mxCell>
        <mxCell id="IVVI-XEZEUWKGoIuO-L4-68" value="Es/Ds/Tm" style="rounded=1;whiteSpace=wrap;html=1;" vertex="1" parent="1">
          <mxGeometry x="230" y="697" width="260" height="60" as="geometry" />
        </mxCell>
        <mxCell id="IVVI-XEZEUWKGoIuO-L4-69" value="&lt;font style=&quot;font-size: 18px;&quot;&gt;参与方A&lt;/font&gt;" style="rounded=1;whiteSpace=wrap;html=1;" vertex="1" parent="1">
          <mxGeometry x="80" y="937" width="150" height="60" as="geometry" />
        </mxCell>
        <mxCell id="IVVI-XEZEUWKGoIuO-L4-70" value="&lt;font style=&quot;font-size: 18px;&quot;&gt;数据流通平台&lt;/font&gt;" style="rounded=1;whiteSpace=wrap;html=1;" vertex="1" parent="1">
          <mxGeometry x="230" y="817" width="260" height="60" as="geometry" />
        </mxCell>
        <mxCell id="IVVI-XEZEUWKGoIuO-L4-71" value="Ds" style="rounded=1;whiteSpace=wrap;html=1;" vertex="1" parent="1">
          <mxGeometry x="40" y="997" width="190" height="50" as="geometry" />
        </mxCell>
        <mxCell id="IVVI-XEZEUWKGoIuO-L4-72" value="&lt;font style=&quot;font-size: 18px;&quot;&gt;参与方B&lt;/font&gt;" style="rounded=1;whiteSpace=wrap;html=1;" vertex="1" parent="1">
          <mxGeometry x="490" y="937" width="150" height="60" as="geometry" />
        </mxCell>
        <mxCell id="IVVI-XEZEUWKGoIuO-L4-73" value="Ds" style="rounded=1;whiteSpace=wrap;html=1;" vertex="1" parent="1">
          <mxGeometry x="490" y="997" width="190" height="50" as="geometry" />
        </mxCell>
        <mxCell id="IVVI-XEZEUWKGoIuO-L4-74" value="" style="endArrow=classic;startArrow=classic;html=1;rounded=0;exitX=0.6;exitY=-0.033;exitDx=0;exitDy=0;exitPerimeter=0;" edge="1" parent="1" source="IVVI-XEZEUWKGoIuO-L4-69">
          <mxGeometry width="50" height="50" relative="1" as="geometry">
            <mxPoint x="180" y="927" as="sourcePoint" />
            <mxPoint x="230" y="877" as="targetPoint" />
          </mxGeometry>
        </mxCell>
        <mxCell id="IVVI-XEZEUWKGoIuO-L4-75" value="" style="endArrow=classic;startArrow=classic;html=1;rounded=0;exitX=0.25;exitY=0;exitDx=0;exitDy=0;entryX=1;entryY=1;entryDx=0;entryDy=0;" edge="1" parent="1" source="IVVI-XEZEUWKGoIuO-L4-72" target="IVVI-XEZEUWKGoIuO-L4-70">
          <mxGeometry width="50" height="50" relative="1" as="geometry">
            <mxPoint x="180" y="945" as="sourcePoint" />
            <mxPoint x="240" y="887" as="targetPoint" />
          </mxGeometry>
        </mxCell>
        <mxCell id="IVVI-XEZEUWKGoIuO-L4-76" value="&lt;font style=&quot;font-size: 18px;&quot;&gt;旧版系统架构模式&lt;/font&gt;" style="text;html=1;align=center;verticalAlign=middle;resizable=0;points=[];autosize=1;strokeColor=none;fillColor=none;" vertex="1" parent="1">
          <mxGeometry x="275" y="657" width="170" height="40" as="geometry" />
        </mxCell>
        <mxCell id="IVVI-XEZEUWKGoIuO-L4-77" value="&lt;font style=&quot;font-size: 18px;&quot;&gt;功能一：新建任务&lt;/font&gt;" style="text;html=1;align=center;verticalAlign=middle;resizable=0;points=[];autosize=1;strokeColor=none;fillColor=none;" vertex="1" parent="1">
          <mxGeometry x="285" y="600" width="170" height="40" as="geometry" />
        </mxCell>
        <mxCell id="IVVI-XEZEUWKGoIuO-L4-78" value="" style="curved=1;endArrow=classic;html=1;rounded=0;exitX=1;exitY=0.5;exitDx=0;exitDy=0;entryX=1;entryY=0.5;entryDx=0;entryDy=0;" edge="1" parent="1" source="IVVI-XEZEUWKGoIuO-L4-70" target="IVVI-XEZEUWKGoIuO-L4-68">
          <mxGeometry width="50" height="50" relative="1" as="geometry">
            <mxPoint x="750" y="1057" as="sourcePoint" />
            <mxPoint x="800" y="1007" as="targetPoint" />
            <Array as="points">
              <mxPoint x="540" y="807" />
            </Array>
          </mxGeometry>
        </mxCell>
        <mxCell id="IVVI-XEZEUWKGoIuO-L4-79" value="Step1 新建任务" style="text;html=1;align=center;verticalAlign=middle;resizable=0;points=[];autosize=1;strokeColor=none;fillColor=none;" vertex="1" parent="1">
          <mxGeometry x="530" y="777" width="110" height="30" as="geometry" />
        </mxCell>
        <mxCell id="IVVI-XEZEUWKGoIuO-L4-84" value="Step2 参与任务运算，发送数据，获取结果" style="text;html=1;align=center;verticalAlign=middle;resizable=0;points=[];autosize=1;strokeColor=none;fillColor=none;" vertex="1" parent="1">
          <mxGeometry x="5" y="1057" width="250" height="30" as="geometry" />
        </mxCell>
        <mxCell id="IVVI-XEZEUWKGoIuO-L4-85" value="&lt;font style=&quot;font-size: 18px;&quot;&gt;数据要素操作系统&lt;/font&gt;" style="rounded=1;whiteSpace=wrap;html=1;" vertex="1" parent="1">
          <mxGeometry x="1060" y="757" width="260" height="60" as="geometry" />
        </mxCell>
        <mxCell id="IVVI-XEZEUWKGoIuO-L4-86" value="Es/Ds/Tm" style="rounded=1;whiteSpace=wrap;html=1;" vertex="1" parent="1">
          <mxGeometry x="1060" y="697" width="260" height="60" as="geometry" />
        </mxCell>
        <mxCell id="IVVI-XEZEUWKGoIuO-L4-87" value="&lt;font style=&quot;font-size: 18px;&quot;&gt;参与方A&lt;/font&gt;" style="rounded=1;whiteSpace=wrap;html=1;" vertex="1" parent="1">
          <mxGeometry x="910" y="937" width="150" height="60" as="geometry" />
        </mxCell>
        <mxCell id="IVVI-XEZEUWKGoIuO-L4-88" value="&lt;font style=&quot;font-size: 18px;&quot;&gt;数据流通平台&lt;/font&gt;" style="rounded=1;whiteSpace=wrap;html=1;" vertex="1" parent="1">
          <mxGeometry x="1060" y="817" width="260" height="60" as="geometry" />
        </mxCell>
        <mxCell id="IVVI-XEZEUWKGoIuO-L4-89" value="&lt;font style=&quot;font-size: 18px;&quot;&gt;参与方B&lt;/font&gt;" style="rounded=1;whiteSpace=wrap;html=1;" vertex="1" parent="1">
          <mxGeometry x="1320" y="937" width="150" height="60" as="geometry" />
        </mxCell>
        <mxCell id="IVVI-XEZEUWKGoIuO-L4-90" value="" style="endArrow=classic;startArrow=classic;html=1;rounded=0;exitX=0.6;exitY=-0.033;exitDx=0;exitDy=0;exitPerimeter=0;" edge="1" parent="1" source="IVVI-XEZEUWKGoIuO-L4-87">
          <mxGeometry width="50" height="50" relative="1" as="geometry">
            <mxPoint x="1010" y="927" as="sourcePoint" />
            <mxPoint x="1060" y="877" as="targetPoint" />
          </mxGeometry>
        </mxCell>
        <mxCell id="IVVI-XEZEUWKGoIuO-L4-91" value="" style="endArrow=classic;startArrow=classic;html=1;rounded=0;exitX=0.25;exitY=0;exitDx=0;exitDy=0;entryX=1;entryY=1;entryDx=0;entryDy=0;" edge="1" parent="1" source="IVVI-XEZEUWKGoIuO-L4-89" target="IVVI-XEZEUWKGoIuO-L4-88">
          <mxGeometry width="50" height="50" relative="1" as="geometry">
            <mxPoint x="1010" y="945" as="sourcePoint" />
            <mxPoint x="1070" y="887" as="targetPoint" />
          </mxGeometry>
        </mxCell>
        <mxCell id="IVVI-XEZEUWKGoIuO-L4-92" value="&lt;font style=&quot;font-size: 18px;&quot;&gt;旧版系统架构模式&lt;/font&gt;" style="text;html=1;align=center;verticalAlign=middle;resizable=0;points=[];autosize=1;strokeColor=none;fillColor=none;" vertex="1" parent="1">
          <mxGeometry x="1105" y="657" width="170" height="40" as="geometry" />
        </mxCell>
        <mxCell id="IVVI-XEZEUWKGoIuO-L4-93" value="&lt;font style=&quot;font-size: 18px;&quot;&gt;功能一：创建DS节点&lt;/font&gt;" style="text;html=1;align=center;verticalAlign=middle;resizable=0;points=[];autosize=1;strokeColor=none;fillColor=none;" vertex="1" parent="1">
          <mxGeometry x="1105" y="600" width="190" height="40" as="geometry" />
        </mxCell>
        <mxCell id="IVVI-XEZEUWKGoIuO-L4-94" value="Es/Ds/Tm" style="rounded=1;whiteSpace=wrap;html=1;" vertex="1" parent="1">
          <mxGeometry x="870" y="997" width="190" height="50" as="geometry" />
        </mxCell>
        <mxCell id="IVVI-XEZEUWKGoIuO-L4-95" value="Es/Ds/Tm" style="rounded=1;whiteSpace=wrap;html=1;" vertex="1" parent="1">
          <mxGeometry x="1320" y="997" width="190" height="50" as="geometry" />
        </mxCell>
        <mxCell id="IVVI-XEZEUWKGoIuO-L4-96" value="" style="endArrow=classic;startArrow=classic;html=1;rounded=0;exitX=1;exitY=0.5;exitDx=0;exitDy=0;entryX=0;entryY=0.5;entryDx=0;entryDy=0;" edge="1" parent="1" source="IVVI-XEZEUWKGoIuO-L4-94" target="IVVI-XEZEUWKGoIuO-L4-95">
          <mxGeometry width="50" height="50" relative="1" as="geometry">
            <mxPoint x="548" y="947" as="sourcePoint" />
            <mxPoint x="510" y="887" as="targetPoint" />
          </mxGeometry>
        </mxCell>
        <mxCell id="IVVI-XEZEUWKGoIuO-L4-97" value="&lt;font style=&quot;font-size: 18px;&quot;&gt;1、任务执行方选择是否采用哪一侧的计算资源&lt;/font&gt;" style="text;html=1;align=center;verticalAlign=middle;resizable=0;points=[];autosize=1;strokeColor=none;fillColor=none;" vertex="1" parent="1">
          <mxGeometry x="1360" y="657" width="390" height="40" as="geometry" />
        </mxCell>
        <mxCell id="IVVI-XEZEUWKGoIuO-L4-98" value="&lt;font style=&quot;font-size: 18px;&quot;&gt;问题：&lt;br&gt;&lt;/font&gt;" style="text;html=1;align=center;verticalAlign=middle;resizable=0;points=[];autosize=1;strokeColor=none;fillColor=none;" vertex="1" parent="1">
          <mxGeometry x="1380" y="617" width="80" height="40" as="geometry" />
        </mxCell>
        <mxCell id="IVVI-XEZEUWKGoIuO-L4-99" value="&lt;font style=&quot;font-size: 18px;&quot;&gt;2、在平台测不作为参与方时，是否可以获取到任务状态？&lt;/font&gt;" style="text;html=1;align=center;verticalAlign=middle;resizable=0;points=[];autosize=1;strokeColor=none;fillColor=none;" vertex="1" parent="1">
          <mxGeometry x="1360" y="697" width="480" height="40" as="geometry" />
        </mxCell>
        <mxCell id="IVVI-XEZEUWKGoIuO-L4-100" value="&lt;font style=&quot;font-size: 18px;&quot;&gt;3、平台测需要选择是否采用参与方的计算资源，通过接口上报是否有计算资源？&lt;/font&gt;" style="text;html=1;align=center;verticalAlign=middle;resizable=0;points=[];autosize=1;strokeColor=none;fillColor=none;" vertex="1" parent="1">
          <mxGeometry x="1360" y="737" width="660" height="40" as="geometry" />
        </mxCell>
        <mxCell id="IVVI-XEZEUWKGoIuO-L4-103" value="&lt;font style=&quot;font-size: 18px;&quot;&gt;4、参与方的数据源管理界面，采用旧系统进行管理？&lt;/font&gt;" style="text;html=1;align=center;verticalAlign=middle;resizable=0;points=[];autosize=1;strokeColor=none;fillColor=none;" vertex="1" parent="1">
          <mxGeometry x="1360" y="777" width="450" height="40" as="geometry" />
        </mxCell>
      </root>
    </mxGraphModel>
  </diagram>
</mxfile>
